<svg width="20" height="20" viewBox="0 0 20 20" fill="none" xmlns="http://www.w3.org/2000/svg">
<path d="M3.65 7.93208C2.78333 8.71669 2.78333 10.2872 3.65 11.0718L10.1522 16.9512C11.2236 17.9189 12.7522 16.997 12.7522 15.382V3.61931C12.7522 2.003 11.2225 1.08108 10.1522 2.05008L3.65 7.93208ZM14.9167 17.3462C14.9167 17.5196 14.9737 17.6859 15.0753 17.8085C15.1769 17.9311 15.3147 18 15.4583 18C15.602 18 15.7398 17.9311 15.8414 17.8085C15.9429 17.6859 16 17.5196 16 17.3462V1.65385C16 1.48044 15.9429 1.31413 15.8414 1.19151C15.7398 1.06889 15.602 1 15.4583 1C15.3147 1 15.1769 1.06889 15.0753 1.19151C14.9737 1.31413 14.9167 1.48044 14.9167 1.65385L14.9167 17.3462Z" fill="white"/>
</svg>
