<svg width="20" height="20" viewBox="0 0 20 20" fill="none" xmlns="http://www.w3.org/2000/svg">
<path d="M5 16.3148L5 3.68641C4.99936 3.18785 5.12453 2.69929 5.36104 2.27726C5.59755 1.85523 5.93571 1.517 6.33639 1.30171C6.8118 1.0497 7.34073 0.95263 7.86291 1.02157C8.38508 1.09052 8.8795 1.3227 9.28981 1.69166L16.1054 8.00586C16.3601 8.25366 16.5645 8.56001 16.7045 8.90418C16.8445 9.24834 16.917 9.62226 16.917 10.0006C16.917 10.379 16.8445 10.7529 16.7045 11.097C16.5645 11.4412 16.3601 11.7476 16.1054 11.9954L9.28981 18.3096C8.8795 18.6785 8.38508 18.9107 7.86291 18.9796C7.34073 19.0486 6.8118 18.9515 6.33639 18.6995C5.93571 18.4842 5.59755 18.146 5.36104 17.724C5.12453 17.3019 4.99936 16.8134 5 16.3148Z" fill="white"/>
</svg>
