<svg width="20" height="20" viewBox="0 0 20 20" fill="none" xmlns="http://www.w3.org/2000/svg">
<path d="M15 3.68519L15 16.3136C15.0006 16.8121 14.8755 17.3007 14.639 17.7227C14.4025 18.1448 14.0643 18.483 13.6636 18.6983C13.1882 18.9503 12.6593 19.0474 12.1371 18.9784C11.6149 18.9095 11.1205 18.6773 10.7102 18.3083L3.89461 11.9941C3.63985 11.7463 3.43554 11.44 3.29551 11.0958C3.15548 10.7517 3.08301 10.3777 3.08301 9.99939C3.08301 9.62104 3.15548 9.24712 3.29551 8.90296C3.43554 8.55879 3.63985 8.25244 3.89461 8.00464L10.7102 1.69044C11.1205 1.32148 11.6149 1.0893 12.1371 1.02035C12.6593 0.951408 13.1882 1.04848 13.6636 1.30049C14.0643 1.51578 14.4025 1.85401 14.639 2.27604C14.8755 2.69807 15.0006 3.18664 15 3.68519Z" fill="white"/>
</svg>
