<svg width="20" height="20" viewBox="0 0 20 20" fill="none" xmlns="http://www.w3.org/2000/svg">
<path d="M16.35 12.0679C17.2167 11.2833 17.2167 9.71277 16.35 8.92815L9.84783 3.04877C8.77642 2.08108 7.24783 3.003 7.24783 4.618L7.24783 16.3807C7.24783 17.997 8.7775 18.9189 9.84783 17.9499L16.35 12.0679ZM5.08333 2.65385C5.08333 2.48044 5.02627 2.31413 4.92468 2.19151C4.8231 2.06889 4.68533 2 4.54167 2C4.39801 2 4.26023 2.06889 4.15865 2.19151C4.05707 2.31413 4 2.48044 4 2.65385L4 18.3462C4 18.5196 4.05707 18.6859 4.15865 18.8085C4.26023 18.9311 4.39801 19 4.54167 19C4.68533 19 4.8231 18.9311 4.92468 18.8085C5.02627 18.6859 5.08333 18.5196 5.08333 18.3462L5.08333 2.65385Z" fill="white"/>
</svg>
