<svg width="70" height="54" viewBox="0 0 70 54" fill="none" xmlns="http://www.w3.org/2000/svg">
    <rect width="70" height="54" rx="10" fill="#96C5EF" />
    <path d="M14.2852 27.6272C14.2852 18.7474 14.2852 14.3075 17.4223 11.5478C20.5637 8.79004 25.6123 8.79004 35.7137 8.79004C45.8152 8.79004 50.8659 8.79004 54.003 11.5478C57.1423 14.3093 57.1423 18.7474 57.1423 27.6272C57.1423 36.5071 57.1423 40.947 54.003 43.7048C50.868 46.4645 45.8152 46.4645 35.7137 46.4645C25.6123 46.4645 20.5616 46.4645 17.4223 43.7048C14.2852 40.9489 14.2852 36.5071 14.2852 27.6272Z" stroke="white" stroke-width="4" />
    <path d="M31.6953 21.7401C31.6954 21.1216 31.8803 20.5139 32.2314 19.9779C32.5826 19.4419 33.0877 18.9964 33.6963 18.6859C34.3048 18.3754 34.9955 18.2108 35.6991 18.2086C36.4027 18.2065 37.0946 18.3668 37.7057 18.6735C38.3167 18.9803 38.8253 19.4227 39.1808 19.9565C39.5362 20.4903 39.7259 21.0968 39.7309 21.7154C39.736 22.3339 39.5561 22.9427 39.2094 23.481C38.8627 24.0192 38.3613 24.4679 37.7553 24.7823C36.7375 25.3117 35.7132 26.116 35.7132 27.1558V29.5105" stroke="white" stroke-width="2" stroke-linecap="round" />
    <path d="M35.7171 37.0471C36.9005 37.0471 37.8599 36.2037 37.8599 35.1634C37.8599 34.123 36.9005 33.2797 35.7171 33.2797C34.5336 33.2797 33.5742 34.123 33.5742 35.1634C33.5742 36.2037 34.5336 37.0471 35.7171 37.0471Z" fill="white" />
</svg>