<svg width="10" height="28" viewBox="0 0 10 28" fill="none" xmlns="http://www.w3.org/2000/svg">
<rect width="10" height="28" fill="#95B0C8"/>
<path d="M4.83333 18C5.31956 18 5.78588 18.2107 6.1297 18.5858C6.47351 18.9609 6.66667 19.4696 6.66667 20C6.66667 20.5304 6.47351 21.0391 6.1297 21.4142C5.78588 21.7893 5.31956 22 4.83333 22C4.3471 22 3.88079 21.7893 3.53697 21.4142C3.19315 21.0391 3 20.5304 3 20C3 19.4696 3.19315 18.9609 3.53697 18.5858C3.88079 18.2107 4.3471 18 4.83333 18ZM4.83333 12C5.31956 12 5.78588 12.2107 6.1297 12.5858C6.47351 12.9609 6.66667 13.4696 6.66667 14C6.66667 14.5304 6.47351 15.0391 6.1297 15.4142C5.78588 15.7893 5.31956 16 4.83333 16C4.3471 16 3.88079 15.7893 3.53697 15.4142C3.19315 15.0391 3 14.5304 3 14C3 13.4696 3.19315 12.9609 3.53697 12.5858C3.88079 12.2107 4.3471 12 4.83333 12ZM4.83333 6C5.31956 6 5.78588 6.21071 6.1297 6.58579C6.47351 6.96086 6.66667 7.46957 6.66667 8C6.66667 8.53043 6.47351 9.03914 6.1297 9.41421C5.78588 9.78929 5.31956 10 4.83333 10C4.3471 10 3.88079 9.78929 3.53697 9.41421C3.19315 9.03914 3 8.53043 3 8C3 7.46957 3.19315 6.96086 3.53697 6.58579C3.88079 6.21071 4.3471 6 4.83333 6Z" fill="white"/>
</svg>
