<svg width="24" height="24" viewBox="0 0 24 24" fill="none" xmlns="http://www.w3.org/2000/svg">
<path d="M9.13004 14.861L17.5964 6.39462C17.8595 6.13154 18.1943 6 18.6009 6C19.0075 6 19.3423 6.13154 19.6054 6.39462C19.8685 6.6577 20 6.99253 20 7.3991C20 7.80568 19.8685 8.14051 19.6054 8.40359L10.1345 17.8744C9.84753 18.1614 9.51271 18.3049 9.13004 18.3049C8.74738 18.3049 8.41256 18.1614 8.12556 17.8744L4.39462 14.1435C4.13154 13.8804 4 13.5456 4 13.139C4 12.7324 4.13154 12.3976 4.39462 12.1345C4.6577 11.8714 4.99253 11.7399 5.3991 11.7399C5.80568 11.7399 6.14051 11.8714 6.40359 12.1345L9.13004 14.861Z" fill="white"/>
</svg>
